<?xml version="1.0" standalone="no"?>
<!DOCTYPE svg PUBLIC "-//W3C//DTD SVG 20010904//EN"
 "http://www.w3.org/TR/2001/REC-SVG-20010904/DTD/svg10.dtd">
<svg version="1.0" xmlns="http://www.w3.org/2000/svg"
 width="343.000000pt" height="343.000000pt" viewBox="0 0 343.000000 343.000000"
 preserveAspectRatio="xMidYMid meet">

<g transform="translate(0.000000,343.000000) scale(0.100000,-0.100000)"
fill="#000000" stroke="none">
<path d="M1605 3257 c-46 -21 -91 -71 -110 -122 -14 -36 -17 -65 -13 -142 6
-110 29 -184 85 -271 l34 -53 -23 -20 c-84 -72 -203 -134 -333 -174 -130 -40
-134 -42 -141 -71 -10 -38 26 -68 70 -58 145 31 341 119 437 197 l61 48 56
-42 c79 -60 222 -133 327 -167 136 -44 160 -47 185 -22 43 43 19 72 -83 100
-145 40 -296 112 -382 184 -30 24 -30 25 -12 53 40 63 77 151 93 221 44 198
-23 341 -164 349 -34 2 -69 -2 -87 -10z m109 -98 c58 -27 69 -148 25 -276 -23
-69 -60 -134 -71 -127 -17 11 -66 120 -77 172 -24 112 -9 191 41 226 27 19 48
20 82 5z"/>
<path d="M1821 2316 c-41 -49 85 -281 191 -354 81 -55 159 -65 173 -22 10 31
-10 54 -63 73 -69 24 -134 92 -178 187 -20 41 -41 86 -48 100 -14 30 -57 38
-75 16z"/>
<path d="M1545 2300 c-17 -19 -17 -22 0 -82 23 -79 26 -219 6 -268 -8 -19 -25
-49 -38 -66 -59 -79 13 -134 76 -57 48 58 66 123 66 238 -1 194 -50 301 -110
235z"/>
<path d="M952 2209 c-19 -5 -53 -29 -76 -52 -55 -56 -71 -109 -63 -225 6 -102
35 -192 84 -265 l35 -52 -44 -37 c-76 -67 -208 -131 -354 -173 -49 -14 -92
-31 -96 -38 -21 -33 5 -77 47 -77 44 0 201 52 291 96 50 25 122 69 160 98 l70
52 54 -44 c72 -57 253 -145 364 -177 103 -29 129 -31 150 -9 39 38 4 75 -99
103 -115 32 -215 76 -298 130 -104 69 -104 67 -62 137 49 82 76 173 82 281 5
85 4 96 -21 146 -44 92 -134 134 -224 106z m110 -116 c58 -51 41 -241 -33
-359 -26 -42 -36 -36 -72 40 -54 113 -61 254 -16 302 42 45 82 51 121 17z"/>
<path d="M2436 2206 c-89 -33 -136 -113 -136 -229 0 -125 28 -221 91 -316 l31
-46 -43 -38 c-59 -51 -243 -141 -354 -172 -49 -14 -93 -31 -97 -38 -21 -33 5
-77 47 -77 88 0 334 105 452 194 l69 52 53 -42 c77 -60 213 -129 335 -169 144
-47 178 -46 191 6 9 35 -13 50 -110 78 -116 33 -216 76 -298 130 -105 69 -104
66 -57 147 48 84 80 202 80 299 0 165 -121 270 -254 221z m116 -113 c29 -25
41 -80 33 -147 -8 -70 -38 -166 -67 -214 -17 -28 -22 -31 -36 -20 -42 36 -88
200 -80 288 9 96 90 145 150 93z"/>
<path d="M1156 1264 c-24 -23 -20 -48 24 -142 58 -124 116 -192 202 -237 64
-34 115 -33 130 0 14 32 -9 60 -57 69 -58 11 -130 87 -180 190 -25 51 -45 97
-45 104 0 12 -31 32 -49 32 -5 0 -17 -7 -25 -16z"/>
<path d="M2646 1264 c-25 -25 -19 -52 33 -159 33 -66 66 -117 98 -149 89 -89
200 -125 225 -71 9 21 8 28 -7 45 -10 11 -24 20 -32 20 -29 0 -92 41 -128 82
-36 42 -115 189 -115 215 0 12 -30 33 -49 33 -5 0 -17 -7 -25 -16z"/>
<path d="M876 1244 c-20 -19 -20 -14 1 -82 10 -36 17 -93 17 -152 1 -99 -1
-104 -62 -202 -20 -32 -9 -61 26 -66 36 -6 60 16 94 85 31 63 33 74 33 173 0
112 -19 223 -42 246 -19 18 -48 18 -67 -2z"/>
<path d="M2366 1244 c-19 -19 -20 -14 1 -82 10 -34 17 -94 17 -147 1 -92 -8
-123 -62 -207 -23 -37 -7 -63 39 -63 30 0 37 6 66 54 42 70 57 145 50 251 -6
89 -31 190 -51 202 -18 12 -44 9 -60 -8z"/>
</g>
</svg>
